<svg xmlns="http://www.w3.org/2000/svg" viewBox="0 0 494.04 114.87"><defs><style>.cls-1{fill:#fff;}</style></defs><title>logo-wh</title><g id="Layer_2" data-name="Layer 2"><g id="Layer_1-2" data-name="Layer 1"><path class="cls-1" d="M23,6H55.6V110.1h-3q-6.42,0-19.16,1.18v-1.77q8.21-2.08,11.26-8.4t3-20.74V12.91H22.52q-9.59,0-13.53,3.95T2.37,31.78H.1C0,30.92,0,30,0,29a39.71,39.71,0,0,1,.4-5A173.43,173.43,0,0,0,1.58,4.82a127,127,0,0,0,13,.88ZM65.48,110.1H62.91V6H98.47a155.14,155.14,0,0,0,19.26-1.18q0,1.88-.3,6.81c-.2,3-.29,6.82-.29,11.36a79.3,79.3,0,0,1-.5,8.79h-2.37q-.19-8.1-4-13.43T93.53,12.91H71.11V83.63q0,12.15,3.46,18.27a15.15,15.15,0,0,0,10.66,7.61v1.77Q67.76,110.1,65.48,110.1Z"/><path class="cls-1" d="M265.2,5V109.1q-7,0-22,1.18v-1.77a15.88,15.88,0,0,0,10.77-8.89Q257,93.1,257,72.56V31.77q0-12.54-3.06-18.28t-10.77-7.9V3.82Q256,4.8,265.2,5Zm13,104.1h-6V5q13.64-.3,19.06-.69c5.46-.33,9.22-.49,11.26-.49q14.82,0,25.28,6.81A43.59,43.59,0,0,1,343.42,28.7q5.13,11,5.13,27.86,0,25.68-12.34,39.7t-33.68,14q-9.88,0-22.32-1.08A11.94,11.94,0,0,0,278.23,109.1ZM282,14.19q-1.59,4.44-1.58,31.11V69.4q0,21.61,2.86,31.6a58.4,58.4,0,0,0,17.38,2.37q18.27,0,28.74-11.55T340,57.54q0-22.12-10.47-34.37T298.68,10.93Q288.11,10.93,282,14.19Zm57.48,87.21q16.39-12.56,16.39-43.46,0-30.22-13.43-42.67a49.89,49.89,0,0,1,17,18.08,50.52,50.52,0,0,1,5.73,24.29Q365.15,86.1,339.47,101.4Z"/><path class="cls-1" d="M419.72.79Q394.19.79,381.87,23q5.2-6,16.51-8.89A96.32,96.32,0,0,1,422,11.33q23.25,0,36.33,11.69Q444.24.79,419.72.79Zm40.34,33.62-6.47,6.39q6,7,6,17.28,0,13.1-8.25,20.2t-31.51,7.11Q381,85.39,381,58.08t38.49-27.44q17.53,0,26.71,4.42l8.41-6.26Q443.34,20,419.47,20q-24.9,0-35.7,10.8T373,58.08q0,17.79,12.2,28t36.71,10q23.89,0,35.19-11.06A35.34,35.34,0,0,0,468.5,58.46,37.7,37.7,0,0,0,460.06,34.41ZM420.61,104.7q-25.53,0-38.62-11.81,11.31,22,38.11,22,27.19,0,39.64-22Q446.15,104.71,420.61,104.7Z"/><path class="cls-1" d="M453.59,40.8,413.9,80,397.13,47a1.15,1.15,0,0,1,1.8-1.37l15,13.51,32.28-24A21.56,21.56,0,0,1,451,38.14,25.25,25.25,0,0,1,453.59,40.8Z"/><path class="cls-1" d="M493.86,1l-33.8,33.4c-.77-1-1.6-1.94-2.48-2.88a26.06,26.06,0,0,0-3-2.73L493.1.12A.59.59,0,0,1,493.86,1Z"/><path class="cls-1" d="M138.3,18.42q-13,14.43-13,42.61t13,43.18Q114,90.47,114.05,60.47,114.05,30.89,138.3,18.42Zm-3.51,44q0-27.19,11.08-40.51T176.71,8.47q18.21,0,30.13,11.91t11.92,39.39q0,30.14-12.76,42t-29.71,12.06A39,39,0,0,1,147,101.26Q134.8,88.78,134.79,62.43Zm11.78-2.24q0,25.65,7.85,34.76t22.29,9.11q13.59,0,22-9.53T207,59.77q0-42.46-30.27-42.47T146.57,60.19Zm68.82,42.47q12.9-14.43,12.9-40.09a106.33,106.33,0,0,0-3.08-26.07Q222,24,215.39,18.28q24.54,13.59,24.54,41.77Q239.93,87.11,215.39,102.66Z"/><path class="cls-1" d="M160.86,37.81l1.06,1,5.62-4.19s.09,0,.06.07l-5.68,5.6-1.19-2.34A.08.08,0,0,1,160.86,37.81Z"/><path class="cls-1" d="M160.86,44.91l1.06,1,5.62-4.18s.09,0,.06.06l-5.68,5.61L160.73,45A.08.08,0,0,1,160.86,44.91Z"/><path class="cls-1" d="M160.86,59.1l1.06,1,5.62-4.19s.09,0,.06.07l-5.68,5.6-1.19-2.34A.08.08,0,0,1,160.86,59.1Z"/><path class="cls-1" d="M160.86,66.19l1.06,1L167.54,63s.09,0,.06.06l-5.68,5.61-1.19-2.35A.08.08,0,0,1,160.86,66.19Z"/><path class="cls-1" d="M160.86,80.39l1.06,1,5.62-4.19s.09,0,.06.06l-5.68,5.61-1.19-2.35A.08.08,0,0,1,160.86,80.39Z"/><path class="cls-1" d="M190.21,26.19a7.19,7.19,0,0,1,7.18,7.18V88.29a7.19,7.19,0,0,1-7.18,7.18H163.67a7.19,7.19,0,0,1-7.18-7.18V33.37a7.19,7.19,0,0,1,7.18-7.18h2.5v5.68h21.55V26.19h2.49m0-3h-5.46V28.9H169.14V23.22h-5.47a10.15,10.15,0,0,0-10.15,10.15V88.29a10.15,10.15,0,0,0,10.15,10.15h26.54a10.14,10.14,0,0,0,10.15-10.15V33.37a10.14,10.14,0,0,0-10.15-10.15Z"/><path class="cls-1" d="M186,19H167.92a1.62,1.62,0,0,0-1.62,1.62v2.64h21.29V20.58A1.63,1.63,0,0,0,186,19Z"/><path class="cls-1" d="M163.46,37.06a1.78,1.78,0,0,1,0,3.55H162a1.78,1.78,0,0,1,0-3.55h1.42m0-1.07H162a2.84,2.84,0,0,0,0,5.68h1.42a2.84,2.84,0,1,0,0-5.68Z"/><path class="cls-1" d="M191.84,37a1.89,1.89,0,1,1,0,3.77H170.56a1.89,1.89,0,1,1,0-3.77h21.28m0-1H170.56a2.84,2.84,0,0,0,0,5.68h21.28a2.84,2.84,0,1,0,0-5.68Z"/><path class="cls-1" d="M163.46,44.16a1.77,1.77,0,0,1,0,3.54H162a1.77,1.77,0,1,1,0-3.54h1.42m0-1.07H162a2.84,2.84,0,0,0,0,5.68h1.42a2.84,2.84,0,1,0,0-5.68Z"/><path class="cls-1" d="M191.84,44a1.89,1.89,0,0,1,0,3.78H170.56a1.89,1.89,0,0,1,0-3.78h21.28m0-.95H170.56a2.84,2.84,0,0,0,0,5.68h21.28a2.84,2.84,0,1,0,0-5.68Z"/><path class="cls-1" d="M163.46,51.25a1.78,1.78,0,0,1,0,3.55H162a1.78,1.78,0,0,1,0-3.55h1.42m0-1.06H162a2.84,2.84,0,1,0,0,5.67h1.42a2.84,2.84,0,1,0,0-5.67Z"/><path class="cls-1" d="M191.84,51.14a1.89,1.89,0,1,1,0,3.77H170.56a1.89,1.89,0,1,1,0-3.77h21.28m0-1H170.56a2.84,2.84,0,1,0,0,5.67h21.28a2.84,2.84,0,1,0,0-5.67Z"/><path class="cls-1" d="M163.46,58.35a1.78,1.78,0,0,1,0,3.55H162a1.78,1.78,0,0,1,0-3.55h1.42m0-1.07H162A2.84,2.84,0,0,0,162,63h1.42a2.84,2.84,0,1,0,0-5.68Z"/><path class="cls-1" d="M191.84,58.24a1.89,1.89,0,1,1,0,3.77H170.56a1.89,1.89,0,1,1,0-3.77h21.28m0-1H170.56a2.84,2.84,0,0,0,0,5.68h21.28a2.84,2.84,0,1,0,0-5.68Z"/><path class="cls-1" d="M163.46,65.44a1.78,1.78,0,0,1,0,3.55H162a1.78,1.78,0,0,1,0-3.55h1.42m0-1.06H162a2.84,2.84,0,0,0,0,5.68h1.42a2.84,2.84,0,0,0,0-5.68Z"/><path class="cls-1" d="M191.84,65.33a1.89,1.89,0,1,1,0,3.77H170.56a1.89,1.89,0,1,1,0-3.77h21.28m0-1H170.56a2.84,2.84,0,1,0,0,5.68h21.28a2.84,2.84,0,0,0,0-5.68Z"/><path class="cls-1" d="M163.46,72.54a1.78,1.78,0,0,1,0,3.55H162a1.78,1.78,0,0,1,0-3.55h1.42m0-1.06H162a2.84,2.84,0,1,0,0,5.67h1.42a2.84,2.84,0,1,0,0-5.67Z"/><path class="cls-1" d="M191.84,72.43a1.89,1.89,0,1,1,0,3.77H170.56a1.89,1.89,0,1,1,0-3.77h21.28m0-1H170.56a2.84,2.84,0,1,0,0,5.67h21.28a2.84,2.84,0,1,0,0-5.67Z"/><path class="cls-1" d="M163.46,79.64a1.77,1.77,0,0,1,0,3.54H162a1.77,1.77,0,0,1,0-3.54h1.42m0-1.07H162a2.84,2.84,0,0,0,0,5.68h1.42a2.84,2.84,0,0,0,0-5.68Z"/><path class="cls-1" d="M191.84,79.52a1.89,1.89,0,0,1,0,3.78H170.56a1.89,1.89,0,0,1,0-3.78h21.28m0-1H170.56a2.84,2.84,0,1,0,0,5.68h21.28a2.84,2.84,0,0,0,0-5.68Z"/><path class="cls-1" d="M163.46,86.73a1.78,1.78,0,0,1,0,3.55H162a1.78,1.78,0,0,1,0-3.55h1.42m0-1.06H162a2.84,2.84,0,0,0,0,5.68h1.42a2.84,2.84,0,1,0,0-5.68Z"/><path class="cls-1" d="M191.84,86.62a1.89,1.89,0,1,1,0,3.77H170.56a1.89,1.89,0,1,1,0-3.77h21.28m0-1H170.56a2.84,2.84,0,0,0,0,5.68h21.28a2.84,2.84,0,1,0,0-5.68Z"/></g></g></svg>